<svg width="25" height="25" viewBox="0 0 25 25" fill="none" xmlns="http://www.w3.org/2000/svg">
<g clip-path="url(#clip0_30_2862)">
<path d="M12.7325 24.0762C19.1145 24.0762 24.2882 18.9274 24.2882 12.5762C24.2882 6.2249 19.1145 1.07617 12.7325 1.07617C6.35048 1.07617 1.17682 6.2249 1.17682 12.5762C1.17682 18.9274 6.35048 24.0762 12.7325 24.0762Z" fill="#E4E3DF"/>
<path d="M4.56115 20.7081C2.39396 18.5513 1.17645 15.6262 1.17645 12.5761C1.17645 9.52598 2.39396 6.60081 4.56115 4.44407C6.72833 2.28733 9.66767 1.07568 12.7325 1.07568C15.7974 1.07568 18.7367 2.28733 20.9039 4.44407L4.56115 20.7081Z" fill="white"/>
<path d="M12.7325 24.0762C19.1145 24.0762 24.2882 18.9274 24.2882 12.5762C24.2882 6.2249 19.1145 1.07617 12.7325 1.07617C6.35048 1.07617 1.17682 6.2249 1.17682 12.5762C1.17682 18.9274 6.35048 24.0762 12.7325 24.0762Z" stroke="#8F8780" stroke-linecap="round" stroke-linejoin="round"/>
<ellipse cx="12.7336" cy="12.5752" rx="0.753632" ry="0.749992" fill="#8F8780"/>
</g>
<defs>
<clipPath id="clip0_30_2862">
<rect width="24.1162" height="24" fill="white" transform="translate(0.675415 0.575195)"/>
</clipPath>
</defs>
</svg>
