<svg width="25" height="25" viewBox="0 0 25 25" fill="none" xmlns="http://www.w3.org/2000/svg">
<g clip-path="url(#clip0_36_4914)">
<path d="M12.2359 24.0299C18.618 24.0299 23.7916 18.8812 23.7916 12.5299C23.7916 6.17863 18.618 1.02991 12.2359 1.02991C5.8539 1.02991 0.680237 6.17863 0.680237 12.5299C0.680237 18.8812 5.8539 24.0299 12.2359 24.0299Z" fill="#E4E3DF"/>
<path d="M4.06457 20.6619C1.89738 18.5052 0.679871 15.58 0.679871 12.5299C0.679871 9.47983 1.89738 6.55467 4.06457 4.39793C6.23175 2.24119 9.17108 1.02954 12.2359 1.02954C15.3008 1.02954 18.2401 2.24119 20.4073 4.39793L4.06457 20.6619Z" fill="white"/>
<path d="M12.2359 24.0299C18.618 24.0299 23.7916 18.8812 23.7916 12.5299C23.7916 6.17863 18.618 1.02991 12.2359 1.02991C5.8539 1.02991 0.680237 6.17863 0.680237 12.5299C0.680237 18.8812 5.8539 24.0299 12.2359 24.0299Z" stroke="#8F8780" stroke-linecap="round" stroke-linejoin="round"/>
<ellipse cx="12.237" cy="12.5289" rx="0.753632" ry="0.749992" fill="#8F8780"/>
</g>
<path d="M15.4417 16.9975L12.2196 12.5289L12.2199 21.3611" stroke="#8F8780" stroke-linecap="round" stroke-linejoin="round"/>
<defs>
<clipPath id="clip0_36_4914">
<rect width="24.1162" height="24" fill="white" transform="translate(0.178833 0.528931)"/>
</clipPath>
</defs>
</svg>
