<svg width="25" height="25" viewBox="0 0 25 25" fill="none" xmlns="http://www.w3.org/2000/svg">
<g clip-path="url(#clip0_30_3018)">
<path d="M12.7325 23.5532C19.1145 23.5532 24.2882 18.4045 24.2882 12.0532C24.2882 5.70195 19.1145 0.553223 12.7325 0.553223C6.35048 0.553223 1.17682 5.70195 1.17682 12.0532C1.17682 18.4045 6.35048 23.5532 12.7325 23.5532Z" fill="#E4E3DF"/>
<path d="M4.56115 20.1851C2.39396 18.0284 1.17645 15.1032 1.17645 12.0531C1.17645 9.00303 2.39396 6.07786 4.56115 3.92112C6.72833 1.76438 9.66767 0.552734 12.7325 0.552734C15.7974 0.552734 18.7367 1.76438 20.9039 3.92112L4.56115 20.1851Z" fill="white"/>
<path d="M12.7325 23.5532C19.1145 23.5532 24.2882 18.4045 24.2882 12.0532C24.2882 5.70195 19.1145 0.553223 12.7325 0.553223C6.35048 0.553223 1.17682 5.70195 1.17682 12.0532C1.17682 18.4045 6.35048 23.5532 12.7325 23.5532Z" stroke="#8F8780" stroke-linecap="round" stroke-linejoin="round"/>
<ellipse cx="12.7336" cy="12.0522" rx="0.753632" ry="0.749992" fill="#8F8780"/>
</g>
<defs>
<clipPath id="clip0_30_3018">
<rect width="24.1162" height="24" fill="white" transform="translate(0.675415 0.0522461)"/>
</clipPath>
</defs>
</svg>
