<svg width="{30}" height="{30}" viewBox="0 0 30 30" fill="none" xmlns="http://www.w3.org/2000/svg">
<g clip-path="url(#clip0_30_3092)">
<path d="M21.0969 7.02552C21.2433 6.72912 21.4821 6.72912 21.6285 7.02552L23.2701 10.3555L26.9445 10.8895C27.2709 10.9375 27.3453 11.1643 27.1089 11.3947L24.4449 13.9867L25.0725 17.6455C25.1277 17.9707 24.9345 18.1111 24.6429 17.9575L21.3573 16.2295L18.0705 17.9575C17.7777 18.1111 17.5845 17.9707 17.6409 17.6455L18.2673 13.9867L15.6093 11.3947C15.3693 11.1643 15.4473 10.9375 15.7737 10.8895L19.4481 10.3555L21.0969 7.02552Z" fill="#E4E3DF" stroke="#8F8780" stroke-width="1.2" stroke-linecap="round" stroke-linejoin="round"/>
<path d="M20.5629 26.6204C17.5395 26.6204 14.6398 25.4193 12.5019 23.2814C10.364 21.1435 9.16294 18.2439 9.16294 15.2204C9.16294 12.1969 10.364 9.29731 12.5019 7.1594C14.6398 5.02148 17.5395 3.82041 20.5629 3.82041C20.8029 3.82041 21.0429 3.82881 21.2769 3.84321C21.4165 3.8523 21.5549 3.81233 21.6682 3.7302C21.7814 3.64807 21.8624 3.52896 21.8971 3.39345C21.9319 3.25794 21.9181 3.11455 21.8584 2.98808C21.7986 2.8616 21.6965 2.75999 21.5697 2.70081C19.4669 1.72578 17.1524 1.2961 14.8398 1.45144C12.5271 1.60678 10.2908 2.34212 8.33732 3.58962C6.3838 4.83711 4.77596 6.55656 3.66219 8.58929C2.54842 10.622 1.9646 12.9026 1.9646 15.2204C1.9646 17.5383 2.54842 19.8188 3.66219 21.8515C4.77596 23.8843 6.3838 25.6037 8.33732 26.8512C10.2908 28.0987 12.5271 28.8341 14.8398 28.9894C17.1524 29.1447 19.4669 28.7151 21.5697 27.74C21.6964 27.6808 21.7983 27.5793 21.8581 27.453C21.9179 27.3267 21.9317 27.1835 21.8971 27.048C21.8625 26.9126 21.7818 26.7935 21.6688 26.7113C21.5558 26.6291 21.4176 26.5889 21.2781 26.5976C21.0405 26.612 20.8029 26.6204 20.5629 26.6204Z" fill="white" stroke="#8F8780" stroke-width="1.2" stroke-linecap="round" stroke-linejoin="round"/>
</g>
<defs>
<clipPath id="clip0_30_3092">
<rect width="28.8" height="28.8" fill="white" transform="translate(0.204926 0.820312)"/>
</clipPath>
</defs>
</svg>
