<svg width="33" height="33" viewBox="0 0 33 33" fill="none" xmlns="http://www.w3.org/2000/svg">
<g clip-path="url(#clip0_30_2775)">
<path d="M26.1008 16.529C26.1008 14.0227 25.1004 11.619 23.3196 9.84682C21.5388 8.0746 19.1235 7.07898 16.605 7.07898C14.0866 7.07898 11.6713 8.0746 9.89053 9.84682C8.10973 11.619 7.10928 14.0227 7.10928 16.529C7.10928 19.0353 8.10973 21.4389 9.89053 23.2111C11.6713 24.9834 14.0866 25.979 16.605 25.979C19.1235 25.979 21.5388 24.9834 23.3196 23.2111C25.1004 21.4389 26.1008 19.0353 26.1008 16.529Z" fill="white"/>
<path d="M16.605 21.254C14.5014 21.252 12.458 20.5549 10.7956 19.2721C9.13318 17.9893 7.94583 16.1935 7.41993 14.1665C7.0515 15.5645 7.0102 17.028 7.29919 18.4443C7.58818 19.8607 8.19977 21.1923 9.08692 22.3365C9.97406 23.4808 11.1131 24.4073 12.4165 25.0449C13.7198 25.6824 15.1528 26.0139 16.605 26.0139C18.0573 26.0139 19.4903 25.6824 20.7936 25.0449C22.097 24.4073 23.236 23.4808 24.1232 22.3365C25.0103 21.1923 25.6219 19.8607 25.9109 18.4443C26.1999 17.028 26.1586 15.5645 25.7902 14.1665C25.2643 16.1935 24.0769 17.9893 22.4145 19.2721C20.752 20.5549 18.7087 21.252 16.605 21.254Z" fill="#E4E3DF"/>
<path d="M26.1008 16.529C26.1008 14.0227 25.1004 11.619 23.3196 9.84682C21.5388 8.0746 19.1235 7.07898 16.605 7.07898V7.07898C14.0866 7.07898 11.6713 8.0746 9.89053 9.84682C8.10973 11.619 7.10928 14.0227 7.10928 16.529V16.529C7.10928 19.0353 8.10973 21.4389 9.89053 23.2111C11.6713 24.9834 14.0866 25.979 16.605 25.979C19.1235 25.979 21.5388 24.9834 23.3196 23.2111C25.1004 21.4389 26.1008 19.0353 26.1008 16.529V16.529Z" stroke="#8F8780" stroke-width="1.35" stroke-linecap="round" stroke-linejoin="round"/>
<path d="M16.605 28.679V31.379" stroke="#8F8780" stroke-width="1.35" stroke-linecap="round" stroke-linejoin="round"/>
<path d="M28.8139 16.5289H31.527" stroke="#8F8780" stroke-width="1.35" stroke-linecap="round" stroke-linejoin="round"/>
<path d="M16.605 4.37895V1.67896" stroke="#8F8780" stroke-width="1.35" stroke-linecap="round" stroke-linejoin="round"/>
<path d="M4.39621 16.5289H1.68314" stroke="#8F8780" stroke-width="1.35" stroke-linecap="round" stroke-linejoin="round"/>
<path d="M7.97339 25.1204L6.05389 27.0306" stroke="#8F8780" stroke-width="1.35" stroke-linecap="round" stroke-linejoin="round"/>
<path d="M25.238 25.1204L27.1562 27.0293" stroke="#8F8780" stroke-width="1.35" stroke-linecap="round" stroke-linejoin="round"/>
<path d="M25.2394 7.93893L27.1576 6.03003" stroke="#8F8780" stroke-width="1.35" stroke-linecap="round" stroke-linejoin="round"/>
<path d="M7.97204 7.93893L6.05389 6.03003" stroke="#8F8780" stroke-width="1.35" stroke-linecap="round" stroke-linejoin="round"/>
</g>
<defs>
<clipPath id="clip0_30_2775">
<rect width="32.5569" height="32.4" fill="white" transform="translate(0.326599 0.328979)"/>
</clipPath>
</defs>
</svg>
